<?xml version="1.0" encoding="UTF-8"?>
<svg width="500" height="500" viewBox="0 0 500 500" xmlns="http://www.w3.org/2000/svg">
  <defs>
    <linearGradient id="grad16" x1="0%" y1="0%" x2="100%" y2="100%">
      <stop offset="0%" style="stop-color:#D97706;stop-opacity:1" />
      <stop offset="100%" style="stop-color:#b45309;stop-opacity:1" />
    </linearGradient>
  </defs>
  <rect width="500" height="500" fill="#0A0A0B"/>
  <rect width="500" height="500" fill="url(#grad16)" opacity="0.15"/>
  <rect x="0" y="0" width="80" height="80" fill="#D97706" opacity="0.3"/><rect x="0" y="100" width="80" height="80" fill="#b45309" opacity="0.35"/><rect x="0" y="200" width="80" height="80" fill="#D97706" opacity="0.4"/><rect x="0" y="300" width="80" height="80" fill="#b45309" opacity="0.45"/><rect x="0" y="400" width="80" height="80" fill="#D97706" opacity="0.5"/><rect x="100" y="0" width="80" height="80" fill="#b45309" opacity="0.35"/><rect x="100" y="100" width="80" height="80" fill="#D97706" opacity="0.4"/><rect x="100" y="200" width="80" height="80" fill="#b45309" opacity="0.45"/><rect x="100" y="300" width="80" height="80" fill="#D97706" opacity="0.5"/><rect x="100" y="400" width="80" height="80" fill="#b45309" opacity="0.55"/><rect x="200" y="0" width="80" height="80" fill="#D97706" opacity="0.4"/><rect x="200" y="100" width="80" height="80" fill="#b45309" opacity="0.45"/><rect x="200" y="200" width="80" height="80" fill="#D97706" opacity="0.5"/><rect x="200" y="300" width="80" height="80" fill="#b45309" opacity="0.55"/><rect x="200" y="400" width="80" height="80" fill="#D97706" opacity="0.6000000000000001"/><rect x="300" y="0" width="80" height="80" fill="#b45309" opacity="0.45"/><rect x="300" y="100" width="80" height="80" fill="#D97706" opacity="0.5"/><rect x="300" y="200" width="80" height="80" fill="#b45309" opacity="0.55"/><rect x="300" y="300" width="80" height="80" fill="#D97706" opacity="0.6000000000000001"/><rect x="300" y="400" width="80" height="80" fill="#b45309" opacity="0.65"/><rect x="400" y="0" width="80" height="80" fill="#D97706" opacity="0.5"/><rect x="400" y="100" width="80" height="80" fill="#b45309" opacity="0.55"/><rect x="400" y="200" width="80" height="80" fill="#D97706" opacity="0.6000000000000001"/><rect x="400" y="300" width="80" height="80" fill="#b45309" opacity="0.65"/><rect x="400" y="400" width="80" height="80" fill="#D97706" opacity="0.7"/>
  <text x="250" y="460" font-family="monospace" font-size="16" fill="#A8A8A0" text-anchor="middle" opacity="0.5">
    Cosmic Signature #1016
  </text>
</svg>